<svg width="750" height="750" viewBox="0 0 750 750" fill="none" xmlns="http://www.w3.org/2000/svg">
<rect width="750" height="750" fill="white"/>
<path d="M386.416 151.11C425.19 117.629 463.582 103.623 487.057 117.055C511.539 131.064 518.708 173.612 507.743 226.424C507.075 229.642 506.331 232.912 505.513 236.228C510.488 237.651 515.322 239.164 519.992 240.759C568.594 257.362 600 283.364 600 310.253C600 338.295 566.436 365.713 514.848 382.672C512.122 383.569 509.333 384.435 506.485 385.27C507.504 389.328 508.402 393.304 509.18 397.2C519.363 448.245 511.52 490.197 487.383 504.061C464.014 517.485 426.241 504.298 387.998 471.643C383.96 468.195 379.901 464.521 375.836 460.637C372.699 463.645 369.566 466.508 366.443 469.217C326.96 503.463 286.412 517.673 262.256 503.85C238.862 490.473 231.511 451.411 240.924 402.223C241.916 397.039 243.095 391.724 244.453 386.299C240.267 385.101 236.205 383.84 232.284 382.51C182.662 365.681 150 337.926 150 310.253C150 283.461 180.425 257.632 228.067 241.15C233.393 239.308 238.952 237.573 244.718 235.95C243.468 230.937 242.357 226 241.403 221.162C231.532 171.108 238.477 131.109 261.93 117.639C286.388 103.589 327.119 118.675 367.756 154.478C370.234 156.661 372.719 158.936 375.207 161.298C377.894 158.741 380.575 156.266 383.252 153.883L386.416 151.11ZM487.889 390.103L485.852 390.567C467.755 394.607 447.904 397.583 426.938 399.429C414.572 417.196 401.903 433.187 389.227 446.944C393.012 450.567 396.788 453.984 400.537 457.185C433.243 485.112 463.571 495.699 477.752 487.553C492.697 478.969 499.082 444.816 490.322 400.904C489.619 397.381 488.807 393.778 487.889 390.103ZM263.101 390.963L262.794 392.166C261.987 395.454 261.251 398.695 260.588 401.882L259.81 405.781C251.761 447.846 257.662 479.208 271.856 487.324C286.816 495.885 319.826 484.317 353.791 454.856C356.632 452.392 359.489 449.783 362.357 447.036C349.223 433.033 336.187 417.057 323.739 399.678C301.935 397.918 281.535 395.006 263.101 390.963ZM402.166 401.058L400.059 401.147C391.817 401.483 383.453 401.652 375.004 401.652C366.074 401.652 357.286 401.484 348.668 401.148C357.548 412.753 366.64 423.549 375.754 433.306C384.554 423.683 393.402 412.873 402.166 401.058ZM375.004 238.724C361.137 238.724 347.412 239.243 334.031 240.246C326.469 251.226 319.157 262.761 312.208 274.718L309.599 279.242C303.663 289.687 298.133 300.219 293.057 310.709C298.876 322.695 305.297 334.742 312.267 346.686C319.257 358.666 326.633 370.259 334.261 381.308C347.376 382.15 361.002 382.578 375.004 382.578C389.067 382.578 402.866 382.092 416.223 381.144C423.546 370.238 430.765 358.682 437.797 346.583C444.824 334.492 451.296 322.387 457.141 310.433C451.28 298.687 444.792 286.706 437.738 274.614C430.762 262.658 423.5 251.161 416.06 240.263C402.681 239.247 388.936 238.724 375.004 238.724ZM282.868 333.141L282.287 334.506C276.818 347.493 272.118 360.263 268.278 372.564C281.124 375.337 295.02 377.546 309.756 379.177C304.908 371.714 300.189 364.056 295.63 356.244C291.156 348.575 286.896 340.861 282.868 333.141ZM467.509 332.455L466.531 334.315C462.705 341.57 458.673 348.846 454.45 356.112C449.918 363.91 445.306 371.496 440.633 378.843C455.483 377.068 469.573 374.69 482.621 371.736C478.595 359.223 473.524 346.059 467.509 332.455ZM249.89 254.327L247.883 254.893C243.225 256.241 238.724 257.664 234.396 259.162C193.652 273.257 169.224 293.995 169.224 310.253C169.224 327.388 195.813 349.983 238.501 364.461C242.071 365.671 245.775 366.823 249.605 367.915C255.294 349.524 262.788 330.216 271.817 310.714C262.906 291.506 255.521 272.503 249.89 254.327ZM500.366 254.605L500.155 255.285C494.644 272.854 487.326 291.402 478.463 310.346C487.869 330.002 495.549 349.021 501.244 366.91L504.49 365.939L508.803 364.566C553.344 349.922 580.776 327.514 580.776 310.253C580.776 294.05 555.376 273.02 513.734 258.795C509.429 257.324 504.969 255.927 500.366 254.605ZM375.003 270.382C397.195 270.382 415.186 288.233 415.186 310.253C415.186 332.274 397.195 350.125 375.003 350.125C352.81 350.125 334.82 332.274 334.82 310.253C334.82 288.233 352.81 270.382 375.003 270.382ZM440.699 242.728L441.38 243.794C445.803 250.704 450.141 257.801 454.375 265.058C458.923 272.853 463.246 280.611 467.33 288.303C473.013 275.079 477.85 262.181 481.728 249.847C468.815 246.916 455.054 244.529 440.699 242.728ZM309.351 242.683L304.596 243.301C292.039 244.982 279.961 247.106 268.555 249.639C272.459 262.143 277.253 275.099 282.848 288.27C286.86 280.552 291.099 272.842 295.545 265.189L298.617 259.902L298.665 259.903L301.014 255.997C303.747 251.494 306.528 247.054 309.351 242.683ZM476.528 133.089C461.985 125.975 431.55 137.422 399.036 165.499C395.599 168.467 392.148 171.605 388.692 174.904C401.552 188.662 414.364 204.546 426.727 222.014C447.954 223.992 468.234 227.175 486.908 231.45C487.638 228.451 488.31 225.489 488.914 222.577C498.382 176.976 492.523 142.202 477.453 133.579L476.528 133.089ZM352.846 166.872C318.555 137.334 286.309 125.675 271.561 134.147C257.428 142.264 251.812 174.613 260.268 217.498C261.154 221.987 262.185 226.576 263.357 231.251C281.981 227.063 302.244 223.936 323.411 221.99C335.753 204.7 348.678 188.837 361.754 174.905C359.489 172.779 357.236 170.718 354.992 168.741L352.846 166.872ZM375.227 188.557L373.793 190.082C365.269 199.313 356.796 209.426 348.515 220.261C357.263 219.856 366.107 219.649 375.004 219.649C383.986 219.649 392.898 219.859 401.698 220.272C392.972 208.731 384.093 198.088 375.227 188.557Z" fill="#252B33"/>
<path d="M290.153 557.8V625H280.553V595.048H241.961V625H232.361V557.8H241.961V586.696H280.553V557.8H290.153ZM330.716 625.576C325.66 625.576 321.116 624.456 317.084 622.216C313.052 619.976 309.884 616.904 307.58 613C305.34 609.032 304.22 604.552 304.22 599.56C304.22 594.568 305.34 590.12 307.58 586.216C309.884 582.248 313.052 579.176 317.084 577C321.116 574.76 325.66 573.64 330.716 573.64C335.772 573.64 340.284 574.76 344.252 577C348.284 579.176 351.42 582.248 353.66 586.216C355.964 590.12 357.116 594.568 357.116 599.56C357.116 604.552 355.964 609.032 353.66 613C351.42 616.904 348.284 619.976 344.252 622.216C340.284 624.456 335.772 625.576 330.716 625.576ZM330.716 617.512C333.98 617.512 336.892 616.776 339.452 615.304C342.076 613.768 344.124 611.656 345.596 608.968C347.068 606.216 347.804 603.08 347.804 599.56C347.804 596.04 347.068 592.936 345.596 590.248C344.124 587.496 342.076 585.384 339.452 583.912C336.892 582.44 333.98 581.704 330.716 581.704C327.452 581.704 324.508 582.44 321.884 583.912C319.324 585.384 317.276 587.496 315.74 590.248C314.268 592.936 313.532 596.04 313.532 599.56C313.532 603.08 314.268 606.216 315.74 608.968C317.276 611.656 319.324 613.768 321.884 615.304C324.508 616.776 327.452 617.512 330.716 617.512ZM391.653 625.576C386.597 625.576 382.053 624.456 378.021 622.216C373.989 619.976 370.821 616.904 368.517 613C366.277 609.032 365.157 604.552 365.157 599.56C365.157 594.568 366.277 590.12 368.517 586.216C370.821 582.248 373.989 579.176 378.021 577C382.053 574.76 386.597 573.64 391.653 573.64C396.709 573.64 401.221 574.76 405.189 577C409.221 579.176 412.357 582.248 414.597 586.216C416.901 590.12 418.053 594.568 418.053 599.56C418.053 604.552 416.901 609.032 414.597 613C412.357 616.904 409.221 619.976 405.189 622.216C401.221 624.456 396.709 625.576 391.653 625.576ZM391.653 617.512C394.917 617.512 397.829 616.776 400.389 615.304C403.013 613.768 405.061 611.656 406.533 608.968C408.005 606.216 408.741 603.08 408.741 599.56C408.741 596.04 408.005 592.936 406.533 590.248C405.061 587.496 403.013 585.384 400.389 583.912C397.829 582.44 394.917 581.704 391.653 581.704C388.389 581.704 385.445 582.44 382.821 583.912C380.261 585.384 378.213 587.496 376.677 590.248C375.205 592.936 374.469 596.04 374.469 599.56C374.469 603.08 375.205 606.216 376.677 608.968C378.213 611.656 380.261 613.768 382.821 615.304C385.445 616.776 388.389 617.512 391.653 617.512ZM450.575 601.288L440.015 611.08V625H430.799V553.768H440.015V599.464L467.759 574.12H478.895L457.487 595.144L481.007 625H469.679L450.575 601.288ZM502.953 625.576C498.793 625.576 494.793 625.032 490.953 623.944C487.113 622.792 484.105 621.352 481.929 619.624L485.769 612.328C488.009 613.928 490.729 615.208 493.929 616.168C497.129 617.128 500.361 617.608 503.625 617.608C511.689 617.608 515.721 615.304 515.721 610.696C515.721 609.16 515.177 607.944 514.089 607.048C513.001 606.152 511.625 605.512 509.961 605.128C508.361 604.68 506.057 604.2 503.049 603.688C498.953 603.048 495.593 602.312 492.969 601.48C490.409 600.648 488.201 599.24 486.345 597.256C484.489 595.272 483.561 592.488 483.561 588.904C483.561 584.296 485.481 580.616 489.321 577.864C493.161 575.048 498.313 573.64 504.777 573.64C508.169 573.64 511.561 574.056 514.953 574.888C518.345 575.72 521.129 576.84 523.305 578.248L519.369 585.544C515.209 582.856 510.313 581.512 504.681 581.512C500.777 581.512 497.801 582.152 495.753 583.432C493.705 584.712 492.681 586.408 492.681 588.52C492.681 590.184 493.257 591.496 494.409 592.456C495.561 593.416 496.969 594.12 498.633 594.568C500.361 595.016 502.761 595.528 505.833 596.104C509.929 596.808 513.225 597.576 515.721 598.408C518.281 599.176 520.457 600.52 522.249 602.44C524.041 604.36 524.937 607.048 524.937 610.504C524.937 615.112 522.953 618.792 518.985 621.544C515.081 624.232 509.737 625.576 502.953 625.576Z" fill="black"/>
</svg>
